<?xml version="1.0" encoding="UTF-8"?> <svg xmlns="http://www.w3.org/2000/svg" width="67" height="67" viewBox="0 0 67 67" fill="none"><path d="M45.7299 5.23389L53.4228 8.25843L26.2128 22.9491L23.9334 41.8165L9.54492 36.4875L10.2572 15.8918L45.7299 5.23389Z" fill="white"></path><path d="M66.2442 15.4599C66.2442 14.8838 65.9593 14.1637 65.6744 13.7316L35.0453 26.1178C33.9057 26.5499 33.1934 27.5581 33.1934 28.8543V66.4451C33.7632 66.4451 34.1906 66.3011 34.7604 66.1571L64.5347 54.0589C65.6744 53.6268 66.3867 52.6186 66.3867 51.3224L66.2442 15.4599Z" fill="#E18400"></path><path d="M64.5346 12.7233L53.4227 8.25848L22.0814 20.9328C20.9417 21.3649 20.2294 22.373 20.2294 23.6693V38.504L12.3941 35.1914V20.5007C12.3941 19.3485 13.1064 18.1963 14.2461 17.7642L45.5874 5.08991L34.6179 0.769127C33.6207 0.337049 32.481 0.337049 31.4838 0.769127L1.85199 12.7233C0.712303 13.1554 0 14.1636 0 15.4598V51.3223C0 52.4745 0.712303 53.6267 1.85199 54.0588L31.6262 66.0129C32.1961 66.157 32.6235 66.301 33.1933 66.301V28.7102C33.1933 27.558 33.9056 26.4058 35.0453 25.9737L65.6743 13.5874C65.3894 13.2994 64.962 13.0113 64.5346 12.7233Z" fill="#FFA526"></path><path d="M47.4395 53.1947L61.6855 47.5776V36.3436L47.4395 41.9606V53.1947Z" fill="#2A8B00"></path></svg> 